<svg xmlns="http://www.w3.org/2000/svg" class="c-mobile-navigation__overlay shape-overlays js-mobile-navigation-overlay" viewBox="0 0 100 100" preserveAspectRatio="none">
            <path class="shape-overlays__path" d="M 0 100 C 16.666666666666664 100 16.666666666666664 100 33.33333333333333 100 C 49.99999999999999 100 49.99999999999999 100 66.66666666666666 100 C 83.33333333333334 100 83.33333333333334 100 100 100 V 100 H 0"/>
            <path class="shape-overlays__path" d="M 0 100 C 16.666666666666664 100 16.666666666666664 100 33.33333333333333 100 C 49.99999999999999 100 49.99999999999999 100 66.66666666666666 100 C 83.33333333333334 100 83.33333333333334 100 100 100 V 100 H 0"/>
            <path class="shape-overlays__path" d="M 0 100 C 16.666666666666664 100 16.666666666666664 100 33.33333333333333 100 C 49.99999999999999 100 49.99999999999999 100 66.66666666666666 100 C 83.33333333333334 100 83.33333333333334 100 100 100 V 100 H 0"/>
            <path class="shape-overlays__path" d="M 0 100 C 16.666666666666664 100 16.666666666666664 100 33.33333333333333 100 C 49.99999999999999 100 49.99999999999999 100 66.66666666666666 100 C 83.33333333333334 100 83.33333333333334 100 100 100 V 100 H 0"/>
        </svg>