<svg class="u-icon u-icon--shape-1 js-bg-shape-animation-svg" viewBox="0 0 1440 1017" fill="none" xmlns="http://www.w3.org/2000/svg">
                        <defs>
                            <linearGradient id="liner-grad-265" x1="208.5" y1="731.5" x2="0" y2="432.937" gradientUnits="userSpaceOnUse">
                                <stop stop-color="#667250"/>
                                <stop offset="1" stop-color="#535D41"/>
                            </linearGradient>
                        </defs>
                        <path fill-rule="evenodd" clip-rule="evenodd" d="M963.477 409.39C968.721 451.82 942.495 506.547 847.842 512.901C797.88 516.256 757.023 498.349 703.714 466.514C630.866 423.012 550.729 375.158 451.932 400.854C437.132 404.703 418.474 414.595 397.552 424.534C325 459 209.262 496.995 106.5 456C72.5459 442.454 26.5 424.534 0 414.5V1017H511.194C427.112 927.187 431.418 790.477 540.144 857.784C569.211 875.778 599.322 908.147 631.579 942.824C654.869 967.86 679.277 994.099 705.22 1017H1440V16.8289C1384.06 0.493652 1314.38 -6.89862 1264.86 12.6029C1245.21 20.343 1228.38 28.9263 1211.62 37.4705C1160.22 63.6842 1109.55 89.5302 980.262 89.5303C860.432 89.5303 883.726 244.685 913.586 317.069C919.152 330.562 927.713 342.307 936.211 353.965C948.57 370.921 960.795 387.693 963.477 409.39Z" fill="url(#liner-grad-265)"/>
                    </svg>